<svg aria-roledescription="gitGraph" role="graphics-document document" viewBox="-136.28125 -19 1194.28125 486.4116516113281" height="100%" xmlns="http://www.w3.org/2000/svg" width="1194.28125" id="graph-div" style="max-width: 100%;" xmlns:xlink="http://www.w3.org/1999/xlink"><style>@import url("https://cdnjs.cloudflare.com/ajax/libs/font-awesome/6.5.1/css/all.min.css");'</style><style>#graph-div{font-family:"trebuchet ms",verdana,arial,sans-serif;font-size:16px;fill:#333;}#graph-div .error-icon{fill:#552222;}#graph-div .error-text{fill:#552222;stroke:#552222;}#graph-div .edge-thickness-normal{stroke-width:2px;}#graph-div .edge-thickness-thick{stroke-width:3.5px;}#graph-div .edge-pattern-solid{stroke-dasharray:0;}#graph-div .edge-pattern-dashed{stroke-dasharray:3;}#graph-div .edge-pattern-dotted{stroke-dasharray:2;}#graph-div .marker{fill:#333333;stroke:#333333;}#graph-div .marker.cross{stroke:#333333;}#graph-div svg{font-family:"trebuchet ms",verdana,arial,sans-serif;font-size:16px;}#graph-div .commit-id,#graph-div .commit-msg,#graph-div .branch-label{fill:lightgrey;color:lightgrey;font-family:'trebuchet ms',verdana,arial,sans-serif;font-family:var(--mermaid-font-family);}#graph-div .branch-label0{fill:#ffffff;}#graph-div .commit0{stroke:hsl(240, 100%, 46.2745098039%);fill:hsl(240, 100%, 46.2745098039%);}#graph-div .commit-highlight0{stroke:hsl(60, 100%, 3.7254901961%);fill:hsl(60, 100%, 3.7254901961%);}#graph-div .label0{fill:hsl(240, 100%, 46.2745098039%);}#graph-div .arrow0{stroke:hsl(240, 100%, 46.2745098039%);}#graph-div .branch-label1{fill:black;}#graph-div .commit1{stroke:hsl(60, 100%, 43.5294117647%);fill:hsl(60, 100%, 43.5294117647%);}#graph-div .commit-highlight1{stroke:rgb(0, 0, 160.5);fill:rgb(0, 0, 160.5);}#graph-div .label1{fill:hsl(60, 100%, 43.5294117647%);}#graph-div .arrow1{stroke:hsl(60, 100%, 43.5294117647%);}#graph-div .branch-label2{fill:black;}#graph-div .commit2{stroke:hsl(80, 100%, 46.2745098039%);fill:hsl(80, 100%, 46.2745098039%);}#graph-div .commit-highlight2{stroke:rgb(48.8333333334, 0, 146.5000000001);fill:rgb(48.8333333334, 0, 146.5000000001);}#graph-div .label2{fill:hsl(80, 100%, 46.2745098039%);}#graph-div .arrow2{stroke:hsl(80, 100%, 46.2745098039%);}#graph-div .branch-label3{fill:#ffffff;}#graph-div .commit3{stroke:hsl(210, 100%, 46.2745098039%);fill:hsl(210, 100%, 46.2745098039%);}#graph-div .commit-highlight3{stroke:rgb(146.5000000001, 73.2500000001, 0);fill:rgb(146.5000000001, 73.2500000001, 0);}#graph-div .label3{fill:hsl(210, 100%, 46.2745098039%);}#graph-div .arrow3{stroke:hsl(210, 100%, 46.2745098039%);}#graph-div .branch-label4{fill:black;}#graph-div .commit4{stroke:hsl(180, 100%, 46.2745098039%);fill:hsl(180, 100%, 46.2745098039%);}#graph-div .commit-highlight4{stroke:rgb(146.5000000001, 0, 0);fill:rgb(146.5000000001, 0, 0);}#graph-div .label4{fill:hsl(180, 100%, 46.2745098039%);}#graph-div .arrow4{stroke:hsl(180, 100%, 46.2745098039%);}#graph-div .branch-label5{fill:black;}#graph-div .commit5{stroke:hsl(150, 100%, 46.2745098039%);fill:hsl(150, 100%, 46.2745098039%);}#graph-div .commit-highlight5{stroke:rgb(146.5000000001, 0, 73.2500000001);fill:rgb(146.5000000001, 0, 73.2500000001);}#graph-div .label5{fill:hsl(150, 100%, 46.2745098039%);}#graph-div .arrow5{stroke:hsl(150, 100%, 46.2745098039%);}#graph-div .branch-label6{fill:black;}#graph-div .commit6{stroke:hsl(300, 100%, 46.2745098039%);fill:hsl(300, 100%, 46.2745098039%);}#graph-div .commit-highlight6{stroke:rgb(0, 146.5000000001, 0);fill:rgb(0, 146.5000000001, 0);}#graph-div .label6{fill:hsl(300, 100%, 46.2745098039%);}#graph-div .arrow6{stroke:hsl(300, 100%, 46.2745098039%);}#graph-div .branch-label7{fill:black;}#graph-div .commit7{stroke:hsl(0, 100%, 46.2745098039%);fill:hsl(0, 100%, 46.2745098039%);}#graph-div .commit-highlight7{stroke:rgb(0, 146.5000000001, 146.5000000001);fill:rgb(0, 146.5000000001, 146.5000000001);}#graph-div .label7{fill:hsl(0, 100%, 46.2745098039%);}#graph-div .arrow7{stroke:hsl(0, 100%, 46.2745098039%);}#graph-div .branch{stroke-width:1;stroke:#333333;stroke-dasharray:2;}#graph-div .commit-label{font-size:10px;fill:#000021;}#graph-div .commit-label-bkg{font-size:10px;fill:#ffffde;opacity:0.5;}#graph-div .tag-label{font-size:10px;fill:#ff0000;}#graph-div .tag-label-bkg{fill:#00ff00;stroke:#0000ff;}#graph-div .tag-hole{fill:#333;}#graph-div .commit-merge{stroke:#ECECFF;fill:#ECECFF;}#graph-div .commit-reverse{stroke:#ECECFF;fill:#ECECFF;stroke-width:3;}#graph-div .commit-highlight-inner{stroke:#ECECFF;fill:#ECECFF;}#graph-div .arrow{stroke-width:8;stroke-linecap:round;fill:none;}#graph-div .gitTitleText{text-anchor:middle;font-size:18px;fill:#333;}#graph-div :root{--mermaid-font-family:"trebuchet ms",verdana,arial,sans-serif;}</style><g></g><g class="commit-bullets"></g><g class="commit-labels"></g><g><line class="branch branch0" y2="0" x2="1050" y1="0" x1="0"></line><rect transform="translate(-19, -9.5)" height="23" width="70.2734375" y="-1.5" x="-86.2734375" ry="4" rx="4" class="branchLabelBkg label0"></rect><g class="branchLabel"><g transform="translate(-96.2734375, -10.5)" class="label branch-label0"><text><tspan class="row" x="0" dy="1em" xml:space="preserve">release</tspan></text></g></g><line class="branch branch1" y2="90" x2="1050" y1="90" x1="0"></line><rect transform="translate(-19, 80.5)" height="23" width="74.5078125" y="-1.5" x="-90.5078125" ry="4" rx="4" class="branchLabelBkg label1"></rect><g class="branchLabel"><g transform="translate(-100.5078125, 79.5)" class="label branch-label1"><text><tspan class="row" x="0" dy="1em" xml:space="preserve">develop</tspan></text></g></g><line class="branch branch2" y2="180" x2="1050" y1="180" x1="0"></line><rect transform="translate(-19, 170.5)" height="23" width="59.671875" y="-1.5" x="-75.671875" ry="4" rx="4" class="branchLabelBkg label2"></rect><g class="branchLabel"><g transform="translate(-85.671875, 169.5)" class="label branch-label2"><text><tspan class="row" x="0" dy="1em" xml:space="preserve">client</tspan></text></g></g><line class="branch branch3" y2="270" x2="1050" y1="270" x1="0"></line><rect transform="translate(-19, 260.5)" height="23" width="65.8046875" y="-1.5" x="-81.8046875" ry="4" rx="4" class="branchLabelBkg label3"></rect><g class="branchLabel"><g transform="translate(-91.8046875, 259.5)" class="label branch-label3"><text><tspan class="row" x="0" dy="1em" xml:space="preserve">livreur</tspan></text></g></g><line class="branch branch4" y2="360" x2="1050" y1="360" x1="0"></line><rect transform="translate(-19, 350.5)" height="23" width="93.28125" y="-1.5" x="-109.28125" ry="4" rx="4" class="branchLabelBkg label4"></rect><g class="branchLabel"><g transform="translate(-119.28125, 349.5)" class="label branch-label4"><text><tspan class="row" x="0" dy="1em" xml:space="preserve">restaurant</tspan></text></g></g></g><g class="commit-arrows"><path class="arrow arrow0" d="M 10 0 L 60 0"></path><path class="arrow arrow1" d="M 60 0 L 60 70 A 20 20, 0, 0, 0, 80 90 L 110 90"></path><path class="arrow arrow2" d="M 110 90 L 110 160 A 20 20, 0, 0, 0, 130 180 L 160 180"></path><path class="arrow arrow2" d="M 160 180 L 210 180"></path><path class="arrow arrow1" d="M 110 90 L 260 90"></path><path class="arrow arrow2" d="M 210 180 L 240 180 A 20 20, 0, 0, 0, 260 160 L 260 90"></path><path class="arrow arrow1" d="M 260 90 L 310 90"></path><path class="arrow arrow1" d="M 310 90 L 360 90"></path><path class="arrow arrow3" d="M 310 90 L 310 250 A 20 20, 0, 0, 0, 330 270 L 410 270"></path><path class="arrow arrow3" d="M 410 270 L 460 270"></path><path class="arrow arrow1" d="M 360 90 L 510 90"></path><path class="arrow arrow3" d="M 460 270 L 490 270 A 20 20, 0, 0, 0, 510 250 L 510 90"></path><path class="arrow arrow4" d="M 360 90 L 360 340 A 20 20, 0, 0, 0, 380 360 L 560 360"></path><path class="arrow arrow1" d="M 510 90 L 610 90"></path><path class="arrow arrow4" d="M 560 360 L 590 360 A 20 20, 0, 0, 0, 610 340 L 610 90"></path><path class="arrow arrow0" d="M 60 0 L 660 0"></path><path class="arrow arrow1" d="M 610 90 L 640 90 A 20 20, 0, 0, 0, 660 70 L 660 0"></path><path class="arrow arrow3" d="M 460 270 L 710 270"></path><path class="arrow arrow2" d="M 210 180 L 760 180"></path><path class="arrow arrow4" d="M 560 360 L 810 360"></path><path class="arrow arrow4" d="M 810 360 L 860 360"></path><path class="arrow arrow1" d="M 610 90 L 910 90"></path><path class="arrow arrow2" d="M 760 180 L 890 180 A 20 20, 0, 0, 0, 910 160 L 910 90"></path><path class="arrow arrow1" d="M 910 90 L 960 90"></path><path class="arrow arrow3" d="M 710 270 L 940 270 A 20 20, 0, 0, 0, 960 250 L 960 90"></path><path class="arrow arrow0" d="M 660 0 L 1010 0"></path><path class="arrow arrow1" d="M 960 90 L 990 90 A 20 20, 0, 0, 0, 1010 70 L 1010 0"></path></g><g class="commit-bullets"><circle class="commit Create Git commit0" r="10" cy="0" cx="10"></circle><circle class="commit Create branch develop commit0" r="10" cy="0" cx="60"></circle><circle class="commit Create branch client commit1" r="10" cy="90" cx="110"></circle><circle class="commit Create profil commit2" r="10" cy="180" cx="160"></circle><circle class="commit Create parrainage commit2" r="10" cy="180" cx="210"></circle><circle class="commit Create profil + Create parrainage commit1" r="9" cy="90" cx="260"></circle><circle class="commit commit-merge Create profil + Create parrainage commit1" r="6" cy="90" cx="260"></circle><circle class="commit Create branch livreur commit1" r="10" cy="90" cx="310"></circle><circle class="commit Create branch restaurant commit1" r="10" cy="90" cx="360"></circle><circle class="commit Create profil livreur commit3" r="10" cy="270" cx="410"></circle><circle class="commit Add json stringlify commit3" r="10" cy="270" cx="460"></circle><circle class="commit Create livreur commit1" r="9" cy="90" cx="510"></circle><circle class="commit commit-merge Create livreur commit1" r="6" cy="90" cx="510"></circle><circle class="commit Create profil restaurant commit4" r="10" cy="360" cx="560"></circle><circle class="commit Create restaurant commit1" r="9" cy="90" cx="610"></circle><circle class="commit commit-merge Create restaurant commit1" r="6" cy="90" cx="610"></circle><circle class="commit v0.1.dev commit0" r="9" cy="0" cx="660"></circle><circle class="commit commit-merge v0.1.dev commit0" r="6" cy="0" cx="660"></circle><circle class="commit Delete json stringlify commit3" r="10" cy="270" cx="710"></circle><circle class="commit Create favori commit2" r="10" cy="180" cx="760"></circle><circle class="commit Add catégorie commit4" r="10" cy="360" cx="810"></circle><circle class="commit Add best sellers commit4" r="10" cy="360" cx="860"></circle><circle class="commit Create favori  commit1" r="9" cy="90" cx="910"></circle><circle class="commit commit-merge Create favori  commit1" r="6" cy="90" cx="910"></circle><circle class="commit Delete json stringlify  commit1" r="9" cy="90" cx="960"></circle><circle class="commit commit-merge Delete json stringlify  commit1" r="6" cy="90" cx="960"></circle><circle class="commit v.0.2.dev commit0" r="9" cy="0" cx="1010"></circle><circle class="commit commit-merge v.0.2.dev commit0" r="6" cy="0" cx="1010"></circle></g><g class="commit-labels"><g transform="translate(-29.396386718749998, 26.19150390625) rotate(-45, 0, 0)"><rect height="15" width="51.6220703125" y="13.5" x="-15.81103515625" class="commit-label-bkg"></rect><text class="commit-label" y="25" x="-13.81103515625">Create Git</text></g><g transform="translate(-50.17541015625, 44.78326171875) rotate(-45, 50, 0)"><rect height="15" width="106.3037109375" y="13.5" x="6.84814453125" class="commit-label-bkg"></rect><text class="commit-label" y="25" x="8.84814453125">Create branch develop</text></g><g transform="translate(-46.746874999999996, 41.715625) rotate(-45, 100, 90)"><rect height="15" width="97.28125" y="103.5" x="61.359375" class="commit-label-bkg"></rect><text class="commit-label" y="115" x="63.359375">Create branch client</text></g><g transform="translate(-33.10435546875, 29.50916015625) rotate(-45, 150, 180)"><rect height="15" width="61.3798828125" y="193.5" x="129.31005859375" class="commit-label-bkg"></rect><text class="commit-label" y="205" x="131.31005859375">Create profil</text></g><g transform="translate(-42.250703125, 37.692734375) rotate(-45, 200, 180)"><rect height="15" width="85.44921875" y="193.5" x="167.275390625" class="commit-label-bkg"></rect><text class="commit-label" y="205" x="169.275390625">Create parrainage</text></g><g transform="translate(-68.31818359375, 61.01626953125) rotate(-45, 250, 90)"><rect height="15" width="154.0478515625" y="103.5" x="182.97607421875" class="commit-label-bkg"></rect><text class="commit-label" y="115" x="184.97607421875">Create profil + Create parrainage</text></g><g transform="translate(-48.203417968749996, 43.01884765625) rotate(-45, 300, 90)"><rect height="15" width="101.1142578125" y="103.5" x="259.44287109375" class="commit-label-bkg"></rect><text class="commit-label" y="115" x="261.44287109375">Create branch livreur</text></g><g transform="translate(-54.7291015625, 48.8576171875) rotate(-45, 350, 90)"><rect height="15" width="118.287109375" y="103.5" x="300.8564453125" class="commit-label-bkg"></rect><text class="commit-label" y="115" x="302.8564453125">Create branch restaurant</text></g><g transform="translate(-45.820996093750004, 40.88720703125) rotate(-45, 400, 270)"><rect height="15" width="94.8447265625" y="283.5" x="362.57763671875" class="commit-label-bkg"></rect><text class="commit-label" y="295" x="364.57763671875">Create profil livreur</text></g><g transform="translate(-42.97025390625, 38.336542968749995) rotate(-45, 450, 270)"><rect height="15" width="87.3427734375" y="283.5" x="416.32861328125" class="commit-label-bkg"></rect><text class="commit-label" y="295" x="418.32861328125">Add json stringlify</text></g><g transform="translate(-35.43408203125, 31.59365234375) rotate(-45, 500, 90)"><rect height="15" width="67.5107421875" y="103.5" x="476.24462890625" class="commit-label-bkg"></rect><text class="commit-label" y="115" x="478.24462890625">Create livreur</text></g><g transform="translate(-52.3466796875, 46.725976562499994) rotate(-45, 550, 360)"><rect height="15" width="112.017578125" y="373.5" x="503.9912109375" class="commit-label-bkg"></rect><text class="commit-label" y="385" x="505.9912109375">Create profil restaurant</text></g><g transform="translate(-41.959765625, 37.432421875) rotate(-45, 600, 90)"><rect height="15" width="84.68359375" y="103.5" x="567.658203125" class="commit-label-bkg"></rect><text class="commit-label" y="115" x="569.658203125">Create restaurant</text></g><g transform="translate(-26.78685546875, 23.85666015625) rotate(-45, 650, 0)"><rect height="15" width="44.7548828125" y="13.5" x="637.62255859375" class="commit-label-bkg"></rect><text class="commit-label" y="25" x="639.62255859375">v0.1.dev</text></g><g transform="translate(-47.29015625, 42.20171875) rotate(-45, 700, 270)"><rect height="15" width="98.7109375" y="283.5" x="660.64453125" class="commit-label-bkg"></rect><text class="commit-label" y="295" x="662.64453125">Delete json stringlify</text></g><g transform="translate(-33.76119140625, 30.09685546875) rotate(-45, 750, 180)"><rect height="15" width="63.1083984375" y="193.5" x="728.44580078125" class="commit-label-bkg"></rect><text class="commit-label" y="205" x="730.44580078125">Create favori</text></g><g transform="translate(-35.544667968750005, 31.69259765625) rotate(-45, 800, 360)"><rect height="15" width="67.8017578125" y="373.5" x="776.09912109375" class="commit-label-bkg"></rect><text class="commit-label" y="385" x="778.09912109375">Add catégorie</text></g><g transform="translate(-38.9813671875, 34.767539062500006) rotate(-45, 850, 360)"><rect height="15" width="76.845703125" y="373.5" x="821.5771484375" class="commit-label-bkg"></rect><text class="commit-label" y="385" x="823.5771484375">Add best sellers</text></g><g transform="translate(-33.76119140625, 30.09685546875) rotate(-45, 900, 90)"><rect height="15" width="63.1083984375" y="103.5" x="878.44580078125" class="commit-label-bkg"></rect><text class="commit-label" y="115" x="880.44580078125">Create favori </text></g><g transform="translate(-47.29015625, 42.20171875) rotate(-45, 950, 90)"><rect height="15" width="98.7109375" y="103.5" x="910.64453125" class="commit-label-bkg"></rect><text class="commit-label" y="115" x="912.64453125">Delete json stringlify </text></g><g transform="translate(-27.6719140625, 24.648554687500003) rotate(-45, 1000, 0)"><rect height="15" width="47.083984375" y="13.5" x="986.4580078125" class="commit-label-bkg"></rect><text class="commit-label" y="25" x="988.4580078125">v.0.2.dev</text></g></g></svg>